<svg width="480" height="480" viewBox="0 0 480 480" fill="none" xmlns="http://www.w3.org/2000/svg">
<g clip-path="url(#clip0_1897_2438)">
<rect width="480" height="480" rx="107.184" fill="url(#paint0_linear_1897_2438)"/>
<g style="mix-blend-mode:soft-light">
<rect width="480" height="480" rx="107.184" fill="url(#paint1_linear_1897_2438)" fill-opacity="0.55"/>
</g>
<rect width="480" height="480" rx="107.184" fill="url(#paint2_linear_1897_2438)" fill-opacity="0.32"/>
<g filter="url(#filter0_dddddd_1897_2438)">
<g filter="url(#filter1_i_1897_2438)">
<path fill-rule="evenodd" clip-rule="evenodd" d="M114.454 380.179C252.176 361.529 361.533 252.187 380.187 114.448C381.438 105.208 374.278 96.9789 364.954 96.9789H112.353C103.858 96.9789 96.9792 103.858 96.9792 112.354V364.952C96.9792 374.27 105.207 381.437 114.454 380.179ZM383.03 367.645V277.403L383.023 277.41C383.023 270.608 374.22 267.881 370.404 273.51C344.59 311.639 311.651 344.582 273.526 370.4C267.898 374.209 270.624 383.021 277.426 383.021H367.657C376.152 383.021 383.03 376.134 383.03 367.645Z" fill="url(#paint3_linear_1897_2438)" fill-opacity="0.85"/>
<path fill-rule="evenodd" clip-rule="evenodd" d="M114.454 380.179C252.176 361.529 361.533 252.187 380.187 114.448C381.438 105.208 374.278 96.9789 364.954 96.9789H112.353C103.858 96.9789 96.9792 103.858 96.9792 112.354V364.952C96.9792 374.27 105.207 381.437 114.454 380.179ZM383.03 367.645V277.403L383.023 277.41C383.023 270.608 374.22 267.881 370.404 273.51C344.59 311.639 311.651 344.582 273.526 370.4C267.898 374.209 270.624 383.021 277.426 383.021H367.657C376.152 383.021 383.03 376.134 383.03 367.645Z" fill="url(#paint4_linear_1897_2438)" fill-opacity="0.7"/>
</g>
</g>
<g filter="url(#filter2_iiii_1897_2438)">
<g filter="url(#filter3_i_1897_2438)">
<path fill-rule="evenodd" clip-rule="evenodd" d="M114.454 380.179C252.176 361.529 361.533 252.187 380.187 114.448C381.438 105.208 374.278 96.9789 364.954 96.9789H112.353C103.858 96.9789 96.9792 103.858 96.9792 112.354V364.952C96.9792 374.27 105.207 381.437 114.454 380.179ZM383.03 367.645V277.403L383.023 277.41C383.023 270.608 374.22 267.881 370.404 273.51C344.59 311.639 311.651 344.582 273.526 370.4C267.898 374.209 270.624 383.021 277.426 383.021H367.657C376.152 383.021 383.03 376.134 383.03 367.645Z" fill="white" fill-opacity="0.01"/>
<path fill-rule="evenodd" clip-rule="evenodd" d="M114.454 380.179C252.176 361.529 361.533 252.187 380.187 114.448C381.438 105.208 374.278 96.9789 364.954 96.9789H112.353C103.858 96.9789 96.9792 103.858 96.9792 112.354V364.952C96.9792 374.27 105.207 381.437 114.454 380.179ZM383.03 367.645V277.403L383.023 277.41C383.023 270.608 374.22 267.881 370.404 273.51C344.59 311.639 311.651 344.582 273.526 370.4C267.898 374.209 270.624 383.021 277.426 383.021H367.657C376.152 383.021 383.03 376.134 383.03 367.645Z" fill="url(#paint5_radial_1897_2438)" fill-opacity="0.3"/>
</g>
<g style="mix-blend-mode:screen">
<path fill-rule="evenodd" clip-rule="evenodd" d="M114.454 380.179C252.176 361.529 361.533 252.187 380.187 114.448C381.438 105.208 374.278 96.9789 364.954 96.9789H112.353C103.858 96.9789 96.9792 103.858 96.9792 112.354V364.952C96.9792 374.27 105.207 381.437 114.454 380.179ZM383.03 367.645V277.403L383.023 277.41C383.023 270.608 374.22 267.881 370.404 273.51C344.59 311.639 311.651 344.582 273.526 370.4C267.898 374.209 270.624 383.021 277.426 383.021H367.657C376.152 383.021 383.03 376.134 383.03 367.645Z" fill="white" fill-opacity="0.01"/>
<path fill-rule="evenodd" clip-rule="evenodd" d="M114.454 380.179C252.176 361.529 361.533 252.187 380.187 114.448C381.438 105.208 374.278 96.9789 364.954 96.9789H112.353C103.858 96.9789 96.9792 103.858 96.9792 112.354V364.952C96.9792 374.27 105.207 381.437 114.454 380.179ZM383.03 367.645V277.403L383.023 277.41C383.023 270.608 374.22 267.881 370.404 273.51C344.59 311.639 311.651 344.582 273.526 370.4C267.898 374.209 270.624 383.021 277.426 383.021H367.657C376.152 383.021 383.03 376.134 383.03 367.645Z" fill="url(#paint6_radial_1897_2438)" fill-opacity="0.3"/>
</g>
</g>
<g style="mix-blend-mode:screen">
<path fill-rule="evenodd" clip-rule="evenodd" d="M114.454 380.179C252.176 361.529 361.533 252.187 380.187 114.448C381.438 105.208 374.278 96.9789 364.954 96.9789H112.353C103.858 96.9789 96.9792 103.858 96.9792 112.354V364.952C96.9792 374.27 105.207 381.437 114.454 380.179ZM383.03 367.645V277.403L383.023 277.41C383.023 270.608 374.219 267.881 370.404 273.51C344.59 311.639 311.65 344.582 273.526 370.4C267.898 374.209 270.624 383.021 277.425 383.021H367.657C376.152 383.021 383.03 376.134 383.03 367.645Z" fill="url(#paint7_linear_1897_2438)" fill-opacity="0.32"/>
<path fill-rule="evenodd" clip-rule="evenodd" d="M114.454 380.179C252.176 361.529 361.533 252.187 380.187 114.448C381.438 105.208 374.278 96.9789 364.954 96.9789H112.353C103.858 96.9789 96.9792 103.858 96.9792 112.354V364.952C96.9792 374.27 105.207 381.437 114.454 380.179ZM383.03 367.645V277.403L383.023 277.41C383.023 270.608 374.219 267.881 370.404 273.51C344.59 311.639 311.65 344.582 273.526 370.4C267.898 374.209 270.624 383.021 277.425 383.021H367.657C376.152 383.021 383.03 376.134 383.03 367.645Z" fill="url(#paint8_linear_1897_2438)" fill-opacity="0.32"/>
</g>
</g>
<rect x="7.27273" y="7.27273" width="465.455" height="465.455" rx="99.9117" stroke="white" stroke-opacity="0.16" stroke-width="14.5455"/>
<defs>
<filter id="filter0_dddddd_1897_2438" x="69.6006" y="86.4934" width="432.265" height="572.061" filterUnits="userSpaceOnUse" color-interpolation-filters="sRGB">
<feFlood flood-opacity="0" result="BackgroundImageFix"/>
<feColorMatrix in="SourceAlpha" type="matrix" values="0 0 0 0 0 0 0 0 0 0 0 0 0 0 0 0 0 0 127 0" result="hardAlpha"/>
<feOffset/>
<feColorMatrix type="matrix" values="0 0 0 0 0.0156863 0 0 0 0 0.00784314 0 0 0 0 0.133333 0 0 0 0.61 0"/>
<feBlend mode="overlay" in2="BackgroundImageFix" result="effect1_dropShadow_1897_2438"/>
<feColorMatrix in="SourceAlpha" type="matrix" values="0 0 0 0 0 0 0 0 0 0 0 0 0 0 0 0 0 0 127 0" result="hardAlpha"/>
<feOffset dx="2.3301" dy="8.73786"/>
<feGaussianBlur stdDeviation="9.61165"/>
<feColorMatrix type="matrix" values="0 0 0 0 0.0156863 0 0 0 0 0.00784314 0 0 0 0 0.133333 0 0 0 0.4 0"/>
<feBlend mode="overlay" in2="effect1_dropShadow_1897_2438" result="effect2_dropShadow_1897_2438"/>
<feColorMatrix in="SourceAlpha" type="matrix" values="0 0 0 0 0 0 0 0 0 0 0 0 0 0 0 0 0 0 127 0" result="hardAlpha"/>
<feOffset dx="9.32039" dy="34.3689"/>
<feGaussianBlur stdDeviation="17.767"/>
<feColorMatrix type="matrix" values="0 0 0 0 0.0156863 0 0 0 0 0.00784314 0 0 0 0 0.133333 0 0 0 0.32 0"/>
<feBlend mode="overlay" in2="effect2_dropShadow_1897_2438" result="effect3_dropShadow_1897_2438"/>
<feColorMatrix in="SourceAlpha" type="matrix" values="0 0 0 0 0 0 0 0 0 0 0 0 0 0 0 0 0 0 127 0" result="hardAlpha"/>
<feOffset dx="20.3883" dy="76.8932"/>
<feGaussianBlur stdDeviation="23.8835"/>
<feColorMatrix type="matrix" values="0 0 0 0 0.0156863 0 0 0 0 0.00784314 0 0 0 0 0.133333 0 0 0 0.12 0"/>
<feBlend mode="overlay" in2="effect3_dropShadow_1897_2438" result="effect4_dropShadow_1897_2438"/>
<feColorMatrix in="SourceAlpha" type="matrix" values="0 0 0 0 0 0 0 0 0 0 0 0 0 0 0 0 0 0 127 0" result="hardAlpha"/>
<feOffset dx="36.699" dy="136.893"/>
<feGaussianBlur stdDeviation="28.2524"/>
<feColorMatrix type="matrix" values="0 0 0 0 0.0156863 0 0 0 0 0.00784314 0 0 0 0 0.133333 0 0 0 0.04 0"/>
<feBlend mode="overlay" in2="effect4_dropShadow_1897_2438" result="effect5_dropShadow_1897_2438"/>
<feColorMatrix in="SourceAlpha" type="matrix" values="0 0 0 0 0 0 0 0 0 0 0 0 0 0 0 0 0 0 127 0" result="hardAlpha"/>
<feOffset dx="57.0874" dy="213.786"/>
<feGaussianBlur stdDeviation="30.8738"/>
<feColorMatrix type="matrix" values="0 0 0 0 0.0156863 0 0 0 0 0.00784314 0 0 0 0 0.133333 0 0 0 0.01 0"/>
<feBlend mode="overlay" in2="effect5_dropShadow_1897_2438" result="effect6_dropShadow_1897_2438"/>
<feBlend mode="normal" in="SourceGraphic" in2="effect6_dropShadow_1897_2438" result="shape"/>
</filter>
<filter id="filter1_i_1897_2438" x="96.9792" y="96.9789" width="286.051" height="294.354" filterUnits="userSpaceOnUse" color-interpolation-filters="sRGB">
<feFlood flood-opacity="0" result="BackgroundImageFix"/>
<feBlend mode="normal" in="SourceGraphic" in2="BackgroundImageFix" result="shape"/>
<feColorMatrix in="SourceAlpha" type="matrix" values="0 0 0 0 0 0 0 0 0 0 0 0 0 0 0 0 0 0 127 0" result="hardAlpha"/>
<feOffset dy="8.31236"/>
<feGaussianBlur stdDeviation="8.31236"/>
<feComposite in2="hardAlpha" operator="arithmetic" k2="-1" k3="1"/>
<feColorMatrix type="matrix" values="0 0 0 0 1 0 0 0 0 1 0 0 0 0 1 0 0 0 0.25 0"/>
<feBlend mode="normal" in2="shape" result="effect1_innerShadow_1897_2438"/>
</filter>
<filter id="filter2_iiii_1897_2438" x="96.9792" y="52.707" width="286.051" height="400.217" filterUnits="userSpaceOnUse" color-interpolation-filters="sRGB">
<feFlood flood-opacity="0" result="BackgroundImageFix"/>
<feBlend mode="normal" in="SourceGraphic" in2="BackgroundImageFix" result="shape"/>
<feColorMatrix in="SourceAlpha" type="matrix" values="0 0 0 0 0 0 0 0 0 0 0 0 0 0 0 0 0 0 127 0" result="hardAlpha"/>
<feOffset dy="-44.2718"/>
<feGaussianBlur stdDeviation="26.7961"/>
<feComposite in2="hardAlpha" operator="arithmetic" k2="-1" k3="1"/>
<feColorMatrix type="matrix" values="0 0 0 0 1 0 0 0 0 1 0 0 0 0 1 0 0 0 0.4 0"/>
<feBlend mode="normal" in2="shape" result="effect1_innerShadow_1897_2438"/>
<feColorMatrix in="SourceAlpha" type="matrix" values="0 0 0 0 0 0 0 0 0 0 0 0 0 0 0 0 0 0 127 0" result="hardAlpha"/>
<feOffset dy="20.9709"/>
<feGaussianBlur stdDeviation="17.4757"/>
<feComposite in2="hardAlpha" operator="arithmetic" k2="-1" k3="1"/>
<feColorMatrix type="matrix" values="0 0 0 0 1 0 0 0 0 1 0 0 0 0 1 0 0 0 0.6 0"/>
<feBlend mode="normal" in2="effect1_innerShadow_1897_2438" result="effect2_innerShadow_1897_2438"/>
<feColorMatrix in="SourceAlpha" type="matrix" values="0 0 0 0 0 0 0 0 0 0 0 0 0 0 0 0 0 0 127 0" result="hardAlpha"/>
<feOffset dy="41.9418"/>
<feGaussianBlur stdDeviation="34.9515"/>
<feComposite in2="hardAlpha" operator="arithmetic" k2="-1" k3="1"/>
<feColorMatrix type="matrix" values="0 0 0 0 1 0 0 0 0 1 0 0 0 0 1 0 0 0 0.3 0"/>
<feBlend mode="normal" in2="effect2_innerShadow_1897_2438" result="effect3_innerShadow_1897_2438"/>
<feColorMatrix in="SourceAlpha" type="matrix" values="0 0 0 0 0 0 0 0 0 0 0 0 0 0 0 0 0 0 127 0" result="hardAlpha"/>
<feOffset dy="83.8835"/>
<feGaussianBlur stdDeviation="34.9515"/>
<feComposite in2="hardAlpha" operator="arithmetic" k2="-1" k3="1"/>
<feColorMatrix type="matrix" values="0 0 0 0 1 0 0 0 0 1 0 0 0 0 1 0 0 0 0.2 0"/>
<feBlend mode="normal" in2="effect3_innerShadow_1897_2438" result="effect4_innerShadow_1897_2438"/>
</filter>
<filter id="filter3_i_1897_2438" x="96.9792" y="96.9789" width="286.051" height="294.354" filterUnits="userSpaceOnUse" color-interpolation-filters="sRGB">
<feFlood flood-opacity="0" result="BackgroundImageFix"/>
<feBlend mode="normal" in="SourceGraphic" in2="BackgroundImageFix" result="shape"/>
<feColorMatrix in="SourceAlpha" type="matrix" values="0 0 0 0 0 0 0 0 0 0 0 0 0 0 0 0 0 0 127 0" result="hardAlpha"/>
<feOffset dy="8.31236"/>
<feGaussianBlur stdDeviation="8.31236"/>
<feComposite in2="hardAlpha" operator="arithmetic" k2="-1" k3="1"/>
<feColorMatrix type="matrix" values="0 0 0 0 1 0 0 0 0 1 0 0 0 0 1 0 0 0 0.25 0"/>
<feBlend mode="normal" in2="shape" result="effect1_innerShadow_1897_2438"/>
</filter>
<linearGradient id="paint0_linear_1897_2438" x1="469.697" y1="-200.606" x2="148.485" y2="613.939" gradientUnits="userSpaceOnUse">
<stop offset="0.0218624" stop-color="#5092D5"/>
<stop offset="0.405785" stop-color="#037DF9"/>
<stop offset="0.694947" stop-color="#5F84E4"/>
<stop offset="0.902014" stop-color="#5AA6E5"/>
<stop offset="1" stop-color="#037FFA"/>
</linearGradient>
<linearGradient id="paint1_linear_1897_2438" x1="240" y1="0" x2="240" y2="480" gradientUnits="userSpaceOnUse">
<stop stop-color="white"/>
<stop offset="1"/>
</linearGradient>
<linearGradient id="paint2_linear_1897_2438" x1="240" y1="0" x2="240" y2="480" gradientUnits="userSpaceOnUse">
<stop stop-color="white"/>
<stop offset="1" stop-color="white" stop-opacity="0"/>
</linearGradient>
<linearGradient id="paint3_linear_1897_2438" x1="240.005" y1="96.9789" x2="240.005" y2="383.021" gradientUnits="userSpaceOnUse">
<stop stop-color="white" stop-opacity="0.7"/>
<stop offset="1" stop-color="white"/>
</linearGradient>
<linearGradient id="paint4_linear_1897_2438" x1="240.005" y1="96.9789" x2="240.005" y2="383.021" gradientUnits="userSpaceOnUse">
<stop stop-color="white"/>
<stop offset="1" stop-color="white" stop-opacity="0"/>
</linearGradient>
<radialGradient id="paint5_radial_1897_2438" cx="0" cy="0" r="1" gradientUnits="userSpaceOnUse" gradientTransform="translate(240.005 96.9789) rotate(90) scale(213.814 213.821)">
<stop stop-color="white"/>
<stop offset="1" stop-color="white" stop-opacity="0"/>
</radialGradient>
<radialGradient id="paint6_radial_1897_2438" cx="0" cy="0" r="1" gradientUnits="userSpaceOnUse" gradientTransform="translate(240.005 96.9789) rotate(90) scale(213.814 213.821)">
<stop stop-color="white"/>
<stop offset="1" stop-color="white" stop-opacity="0"/>
</radialGradient>
<linearGradient id="paint7_linear_1897_2438" x1="240.005" y1="96.9789" x2="240.005" y2="383.021" gradientUnits="userSpaceOnUse">
<stop stop-color="white" stop-opacity="0.7"/>
<stop offset="1" stop-color="white"/>
</linearGradient>
<linearGradient id="paint8_linear_1897_2438" x1="240.005" y1="96.9789" x2="240.005" y2="383.021" gradientUnits="userSpaceOnUse">
<stop stop-color="white"/>
<stop offset="1" stop-color="white" stop-opacity="0"/>
</linearGradient>
<clipPath id="clip0_1897_2438">
<rect width="480" height="480" rx="107.184" fill="white"/>
</clipPath>
</defs>
</svg>
