<svg width="126" height="24" viewBox="0 0 126 24" fill="none" xmlns="http://www.w3.org/2000/svg">
<g filter="url(#filter0_i_2088_4670)">
<rect width="24" height="23.9995" rx="4.79978" fill="url(#paint0_radial_2088_4670)"/>
<g filter="url(#filter1_i_2088_4670)">
<path fill-rule="evenodd" clip-rule="evenodd" d="M6.73284 17.8806C12.5106 17.0982 17.0984 12.5111 17.881 6.7326C17.9335 6.34494 17.6331 5.99972 17.2419 5.99972H6.64471C6.28833 5.99972 5.99976 6.28833 5.99976 6.64475V17.2418C5.99976 17.6327 6.34493 17.9334 6.73284 17.8806ZM18.0003 17.3548V13.5689L18 13.5692C18 13.2838 17.6306 13.1695 17.4706 13.4056C16.3876 15.0052 15.0057 16.3872 13.4063 17.4704C13.1702 17.6301 13.2845 17.9998 13.5699 17.9998H17.3553C17.7117 17.9998 18.0003 17.7109 18.0003 17.3548Z" fill="url(#paint1_radial_2088_4670)"/>
</g>
<g style="mix-blend-mode:screen">
<path fill-rule="evenodd" clip-rule="evenodd" d="M6.73284 17.8806C12.5106 17.0982 17.0984 12.5111 17.881 6.7326C17.9335 6.34494 17.6331 5.99972 17.2419 5.99972H6.64471C6.28833 5.99972 5.99976 6.28833 5.99976 6.64475V17.2418C5.99976 17.6327 6.34493 17.9334 6.73284 17.8806ZM18.0003 17.3548V13.5689L18 13.5692C18 13.2838 17.6306 13.1695 17.4706 13.4056C16.3876 15.0052 15.0057 16.3872 13.4063 17.4704C13.1702 17.6301 13.2845 17.9998 13.5699 17.9998H17.3553C17.7117 17.9998 18.0003 17.7109 18.0003 17.3548Z" fill="url(#paint2_linear_2088_4670)"/>
</g>
</g>
<path d="M33.204 7.05976H35.276L38.23 15.2218L41.184 7.05976H43.256V16.9998H41.73V9.81776L39.07 16.9858H37.39L34.716 9.81776V16.9998H33.204V7.05976ZM48.0733 17.1678C45.9313 17.1678 44.5313 15.6558 44.5313 13.2898C44.5313 10.9238 45.9313 9.41176 48.0733 9.41176C50.2013 9.41176 51.6013 10.9238 51.6013 13.2898C51.6013 15.6558 50.2013 17.1678 48.0733 17.1678ZM46.0713 13.2898C46.0713 14.9138 46.8133 15.8798 48.0733 15.8798C49.3333 15.8798 50.0613 14.9138 50.0613 13.2898C50.0613 11.6658 49.3333 10.6998 48.0733 10.6998C46.8133 10.6998 46.0713 11.6658 46.0713 13.2898ZM59.4381 7.05976V16.9998H58.0521L58.0101 15.9358C57.5901 16.6918 56.7221 17.1678 55.7001 17.1678C53.7681 17.1678 52.5641 15.6698 52.5641 13.2898C52.5641 10.9098 53.7681 9.41176 55.7001 9.41176C56.6661 9.41176 57.5341 9.85976 57.9541 10.5738V7.05976H59.4381ZM54.1041 13.2898C54.1041 14.8858 54.8881 15.8938 56.0781 15.8938C57.2961 15.8938 58.0661 14.8858 58.0661 13.2898C58.0661 11.6658 57.2961 10.6438 56.0781 10.6438C54.8741 10.6438 54.1041 11.6658 54.1041 13.2898ZM67.107 16.9998H65.721L65.707 15.7818C65.301 16.7618 64.461 17.1678 63.495 17.1678C61.857 17.1678 61.003 15.9778 61.003 14.3538V9.57976H62.487V13.8918C62.487 15.2078 62.879 15.9218 63.887 15.9218C64.951 15.9218 65.623 15.2078 65.623 13.8918V9.57976H67.107V16.9998ZM68.9261 7.05976H70.4101V15.2778C70.4101 15.6138 70.5921 15.7818 70.9141 15.7818H71.5161V16.9998H70.5921C69.5981 16.9998 68.9261 16.3558 68.9261 15.3478V7.05976ZM72.4943 11.8058C72.7883 10.3078 73.9643 9.41176 75.6723 9.41176C77.6883 9.41176 78.7943 10.5318 78.7943 12.5618V15.3198C78.7943 15.6978 78.9623 15.8378 79.2563 15.8378H79.5503V16.9998H79.0883C78.4163 17.0138 77.5063 16.9018 77.4363 15.8518C77.1003 16.5658 76.2743 17.1678 75.0423 17.1678C73.5443 17.1678 72.3683 16.3698 72.3683 15.0538C72.3683 13.5698 73.4743 13.1358 75.1823 12.8138L77.3103 12.3938C77.2963 11.2038 76.7503 10.6158 75.6723 10.6158C74.8043 10.6158 74.2303 11.0638 74.0343 11.9038L72.4943 11.8058ZM73.9083 15.0258C73.9083 15.5718 74.3843 16.0198 75.3643 16.0198C76.4703 16.0058 77.3383 15.2218 77.3383 13.6258V13.5278L75.7563 13.8078C74.7343 13.9898 73.9083 14.0878 73.9083 15.0258ZM80.6845 9.57976H82.0425L82.0845 10.9798C82.3505 10.0278 82.9105 9.57976 83.8625 9.57976H84.5765V10.7978H83.8485C82.6865 10.7978 82.1685 11.4418 82.1685 12.6738V16.9998H80.6845V9.57976ZM97.4092 13.6258C97.0312 15.8098 95.6032 17.2238 93.2792 17.2238C90.3952 17.2238 88.6872 14.9558 88.6872 12.0438C88.6872 9.13176 90.3952 6.83576 93.2792 6.83576C95.4492 6.83576 96.9052 8.16576 97.3392 10.2378L95.7432 10.3218C95.4492 8.97776 94.5532 8.22176 93.2652 8.22176C91.1792 8.22176 90.2552 9.95776 90.2552 12.0438C90.2552 14.1158 91.1932 15.8378 93.2652 15.8378C94.6232 15.8378 95.5332 15.0118 95.7992 13.5418L97.4092 13.6258ZM98.7527 7.05976H100.237V15.2778C100.237 15.6138 100.419 15.7818 100.741 15.7818H101.343V16.9998H100.419C99.4247 16.9998 98.7527 16.3558 98.7527 15.3478V7.05976ZM105.628 17.1678C103.486 17.1678 102.086 15.6558 102.086 13.2898C102.086 10.9238 103.486 9.41176 105.628 9.41176C107.756 9.41176 109.156 10.9238 109.156 13.2898C109.156 15.6558 107.756 17.1678 105.628 17.1678ZM103.626 13.2898C103.626 14.9138 104.368 15.8798 105.628 15.8798C106.888 15.8798 107.616 14.9138 107.616 13.2898C107.616 11.6658 106.888 10.6998 105.628 10.6998C104.368 10.6998 103.626 11.6658 103.626 13.2898ZM116.492 16.9998H115.106L115.092 15.7818C114.686 16.7618 113.846 17.1678 112.88 17.1678C111.242 17.1678 110.388 15.9778 110.388 14.3538V9.57976H111.872V13.8918C111.872 15.2078 112.264 15.9218 113.272 15.9218C114.336 15.9218 115.008 15.2078 115.008 13.8918V9.57976H116.492V16.9998ZM124.574 7.05976V16.9998H123.188L123.146 15.9358C122.726 16.6918 121.858 17.1678 120.836 17.1678C118.904 17.1678 117.7 15.6698 117.7 13.2898C117.7 10.9098 118.904 9.41176 120.836 9.41176C121.802 9.41176 122.67 9.85976 123.09 10.5738V7.05976H124.574ZM119.24 13.2898C119.24 14.8858 120.024 15.8938 121.214 15.8938C122.432 15.8938 123.202 14.8858 123.202 13.2898C123.202 11.6658 122.432 10.6438 121.214 10.6438C120.01 10.6438 119.24 11.6658 119.24 13.2898Z" fill="#272835"/>
<defs>
<filter id="filter0_i_2088_4670" x="0" y="0" width="24" height="25.9995" filterUnits="userSpaceOnUse" color-interpolation-filters="sRGB">
<feFlood flood-opacity="0" result="BackgroundImageFix"/>
<feBlend mode="normal" in="SourceGraphic" in2="BackgroundImageFix" result="shape"/>
<feColorMatrix in="SourceAlpha" type="matrix" values="0 0 0 0 0 0 0 0 0 0 0 0 0 0 0 0 0 0 127 0" result="hardAlpha"/>
<feOffset dy="1.99998"/>
<feGaussianBlur stdDeviation="1.99998"/>
<feComposite in2="hardAlpha" operator="arithmetic" k2="-1" k3="1"/>
<feColorMatrix type="matrix" values="0 0 0 0 1 0 0 0 0 1 0 0 0 0 1 0 0 0 0.25 0"/>
<feBlend mode="normal" in2="shape" result="effect1_innerShadow_2088_4670"/>
</filter>
<filter id="filter1_i_2088_4670" x="5.99976" y="5.99972" width="12.0005" height="14.0001" filterUnits="userSpaceOnUse" color-interpolation-filters="sRGB">
<feFlood flood-opacity="0" result="BackgroundImageFix"/>
<feBlend mode="normal" in="SourceGraphic" in2="BackgroundImageFix" result="shape"/>
<feColorMatrix in="SourceAlpha" type="matrix" values="0 0 0 0 0 0 0 0 0 0 0 0 0 0 0 0 0 0 127 0" result="hardAlpha"/>
<feOffset dy="1.99998"/>
<feGaussianBlur stdDeviation="1.99998"/>
<feComposite in2="hardAlpha" operator="arithmetic" k2="-1" k3="1"/>
<feColorMatrix type="matrix" values="0 0 0 0 1 0 0 0 0 1 0 0 0 0 1 0 0 0 0.25 0"/>
<feBlend mode="normal" in2="shape" result="effect1_innerShadow_2088_4670"/>
</filter>
<radialGradient id="paint0_radial_2088_4670" cx="0" cy="0" r="1" gradientUnits="userSpaceOnUse" gradientTransform="translate(16.8752 11.9998) rotate(-145.752) scale(21.3224 49.3244)">
<stop stop-color="#0075FB"/>
<stop offset="1" stop-color="#0091FB"/>
</radialGradient>
<radialGradient id="paint1_radial_2088_4670" cx="0" cy="0" r="1" gradientUnits="userSpaceOnUse" gradientTransform="translate(14.4378 11.9998) rotate(-145.752) scale(10.6616 24.663)">
<stop stop-color="white"/>
<stop offset="1" stop-color="white"/>
</radialGradient>
<linearGradient id="paint2_linear_2088_4670" x1="3.7496" y1="1.12468" x2="15.7494" y2="20.6255" gradientUnits="userSpaceOnUse">
<stop offset="0.329977" stop-color="#005BBB"/>
<stop offset="0.78396"/>
</linearGradient>
</defs>
</svg>
